PathFileType	4	(X/Y/Z)	C:/Users/beibeiliu/ov580/test_trc/User2\sequence.24_training_dense_right.trc
DataRate	CameraRate	NumFrames	NumMarkers	Units	OrigDataRate	OrigDataStartFrame	OrigNumFrames
120	120	20	19	mm	120	395	451
Frame#	Time	ThumbCMC			ThumbMCP			ThumbIP			ThumbTip			IndexMCP			IndexPIP			IndexTip			MiddleMCP			MiddlePIP			MiddleTip			RingMCP			RingPIP			RingTip			PinkyMCP			PinkyPIP			PinkyTip			BackHand1			BackHand2			BackHand3	
		X0	Y0	Z0	X1	Y1	Z1	X2	Y2	Z2	X3	Y3	Z3	X4	Y4	Z4	X5	Y5	Z5	X6	Y6	Z6	X7	Y7	Z7	X8	Y8	Z8	X9	Y9	Z9	X10	Y10	Z10	X11	Y11	Z11	X12	Y12	Z12	X13	Y13	Z13	X14	Y14	Z14	X15	Y15	Z15	X16	Y16	Z16	X17	Y17	Z17	X18	Y18	Z18	
394	3.28333	87.239	-25.9277	59.3722	46.1351	-29.6284	49.3815	14.6751	-47.3166	38.0508	-1.56319	-67.1492	35.6421	75.6716	-62.7785	-13.7151	56.4001	-72.7901	-38.4836	40.1234	-82.5499	-58.1547	68.7218	-88.2526	-13.962	50.1979	-93.0309	-37.7624	28.555	-101.087	-61.4729	47.2715	-96.811	13.2063	15.9999	-89.2615	19.9368	21.9898	-64.4402	46.3246	43.0639	-107.097	39.0975	16.0833	-87.207	50.3309	29.6552	-65.3017	68.6067	100.23	-92.0731	46.3466	118.859	-85.5675	72.2937	113.919	-57.5975	42.6997	
395	3.29167	74.2173	-20.5187	66.2338	35.5997	-31.0086	58.7891	6.31434	-53.0438	46.6716	-6.93357	-74.0882	42.2278	63.4439	-52.572	-12.4079	48.9853	-61.4442	-32.2974	32.4664	-69.4361	-52.013	63.3118	-74.9099	-13.7056	45.292	-79.3248	-35.3744	21.6795	-85.6294	-61.9982	39.8053	-96.9708	14.0436	13.0604	-86.9054	22.9247	20.1661	-70.1222	57.6189	38.7858	-108.665	37.2061	14.6287	-90.0098	55.5298	29.4148	-69.3388	70.9888	96.6984	-88.8966	47.1445	118.579	-75.7125	75.0941	109.538	-47.4404	46.229	
396	3.3	65.0338	-24.4726	79.0439	23.8637	-38.17	67.6609	1.37616	-62.3421	51.1341	-6.10496	-84.9142	42.7897	51.5017	-41.2736	-5.37996	35.5	-44.8256	-28.1863	21.1568	-54.2003	-48.6409	57.8304	-61.6881	-8.93647	38.0672	-63.8747	-31.8574	17.0049	-72.9142	-58.3756	42.9449	-90.4678	13.1534	11.5536	-88.3546	24.3773	20.4079	-78.8739	60.9506	46.0243	-102.198	33.3265	17.1906	-98.0243	52.5714	29.975	-78.666	75.9469	94.3683	-75.9642	43.5487	114.051	-68.9048	71.1017	96.8713	-35.6712	52.1824	
397	3.30833	49.3457	-29.7956	86.7093	19.6148	-50.1469	74.962	-1.30955	-72.1335	57.2695	0.655512	-94.8773	38.1113	37.1725	-28.8741	5.30073	23.6173	-36.0213	-15.3692	7.14009	-37.0532	-39.8517	47.928	-47.8392	-5.35661	30.3167	-50.7464	-26.8618	12.2948	-56.5926	-55.1753	42.898	-81.2789	10.2702	15.5375	-94.9546	22.9273	21.8233	-88.7745	57.5001	49.2412	-100.561	26.1757	25.1552	-106.734	49.2832	32.2932	-90.7199	77.3868	95.3627	-63.7141	41.4715	114.425	-57.7277	74.0676	85.8516	-29.5158	59.5925	
398	3.31667	39.8646	-42.0956	100.458	10.4909	-64.9958	83.1531	2.5318	-84.8989	54.4399	3.44358	-101.487	31.9326	21.2644	-25.9812	20.3135	6.20512	-27.727	-3.26951	-4.551	-32.6358	-27.0378	36.3138	-36.5984	3.97218	19.8083	-38.2868	-18.9591	0.117489	-39.3012	-48.1638	38.2201	-72.0328	9.26124	22.5495	-98.8104	16.819	27.9649	-95.3995	55.4113	56.585	-92.8852	20.6001	33.9904	-108.136	40.7198	39.8401	-99.9251	71.0849	88.3472	-49.0705	49.8703	106.489	-44.2521	78.9927	71.0408	-22.0997	73.6476	
399	3.325	35.9299	-51.1819	105.099	11.3085	-74.2073	83.5083	2.69019	-91.6204	54.2631	9.65216	-103.284	24.5843	14.7841	-26.2396	30.8927	2.12615	-29.494	4.65137	-12.0854	-29.2661	-19.9094	30.063	-32.4846	11.6483	10.5397	-33.8744	-12.6975	-2.63741	-35.4979	-41.6688	41.4835	-70.0169	7.88483	25.8638	-94.8644	13.2107	35.5136	-104.424	49.6976	63.4665	-87.1313	17.146	42.5522	-109.636	32.0123	47.3221	-108.853	62.793	82.2292	-41.9557	48.996	102.084	-40.0055	81.3719	61.9946	-23.9253	82.5216	
400	3.33333	36.9326	-55.1029	105.33	14.1289	-78.5006	84.8219	7.58038	-94.2921	51.8308	12.2266	-103.133	24.0264	9.988	-28.3907	29.5215	-3.38824	-28.5886	7.82315	-14.7273	-30.7273	-18.501	26.8547	-32.2603	14.1341	8.48009	-34.2752	-12.6534	-3.2037	-35.9826	-36.7269	41.2426	-66.1261	10.5754	30.4626	-97.9482	11.0831	38.6827	-107.395	43.566	65.0321	-82.3327	16.255	46.1768	-108.343	29.322	50.7433	-110.616	60.8775	83.6917	-39.4495	53.9215	98.9875	-37.477	81.3392	58.6061	-24.9198	84.4526	
401	3.34167	39.4515	-57.9419	105.346	13.5102	-81.0526	83.1971	8.15233	-95.92	47.2514	18.5049	-101.894	25.1113	14.691	-30.135	32.1857	-2.18927	-30.257	6.04096	-10.5187	-32.836	-21.6457	29.1308	-32.8828	17.0885	10.8285	-34.3241	-10.323	-4.00669	-35.8083	-39.6253	45.1006	-66.1301	9.78154	34.6285	-96.6332	7.8892	41.5765	-110.178	42.2647	70.3121	-82.2965	14.1876	52.4412	-110.464	27.7302	55.6548	-108.818	60.5396	85.1935	-38.1347	53.0664	99.8477	-34.8714	81.7578	64.3228	-26.5972	85.6159	
402	3.35	41.6544	-60.8979	106.449	19.7664	-80.4491	82.3038	11.3889	-96.2489	50.411	19.4213	-103.399	19.584	13.4454	-31.1127	32.4162	-0.0438952	-31.3801	5.2812	-12.3669	-31.8357	-20.6768	29.0884	-33.7555	16.6027	12.726	-35.731	-11.8236	2.91418	-36.5208	-38.4779	47.5984	-67.3271	6.10674	36.233	-92.6797	5.29946	40.9926	-109.872	36.6049	69.8389	-81.5323	13.1537	57.2009	-109.041	22.3233	57.4963	-110.017	56.1903	83.0289	-36.0512	54.3909	100.665	-35.077	83.1446	61.3576	-27.1128	83.7077	
403	3.35833	43.5813	-61.5049	105.763	18.8122	-82.6202	80.0964	14.2412	-97.0518	49.2475	23.0478	-103.288	19.9444	17.0447	-32.368	28.5555	4.44804	-33.3036	5.15301	-8.16047	-33.2918	-23.4489	29.3422	-33.801	12.0824	14.6525	-36.3614	-11.2728	0.464698	-35.7222	-40.5078	51.9914	-65.6269	4.21003	40.4887	-98.6436	4.7696	41.5006	-111.269	33.464	71.5824	-80.441	11.1857	56.8545	-108.309	22.3884	59.9922	-108.536	54.8715	85.7074	-36.0589	53.6299	101.571	-35.9176	84.1727	61.3112	-27.075	84.4827	
404	3.36667	39.8507	-62.4459	101.526	18.5364	-83.6415	75.6713	16.2171	-96.8349	42.3056	21.5319	-106.208	19.1955	18.6451	-33.2424	30.5586	4.73222	-33.6661	5.95394	-1.2846	-35.506	-21.8339	31.7671	-34.6024	11.9097	16.4348	-36.9813	-17.3141	6.154	-36.7928	-44.549	51.0707	-66.9562	3.68137	43.3114	-94.9567	0.274012	44.1669	-112.481	36.0691	76.4304	-83.1974	9.7822	64.2582	-110.684	19.4847	63.5519	-109.696	53.6913	84.8447	-38.3204	54.581	104.347	-35.922	82.8589	65.344	-30.5079	81.2786	
405	3.375	39.2117	-63.5326	100.956	23.1198	-85.4004	78.9496	16.0967	-100.42	40.2305	26.3698	-108.456	16.4547	22.496	-36.0838	23.3529	9.65202	-35.7609	0.846652	0.297562	-36.6908	-25.7835	37.3956	-37.5143	5.89651	21.4172	-39.1609	-17.5876	8.28529	-39.8759	-42.4368	54.8841	-67.722	3.38062	44.1193	-96.6411	0.283127	46.7653	-114.424	32.9341	77.0046	-83.356	10.0293	65.4068	-114.404	21.916	62.3775	-108.306	53.9032	88.8781	-40.0032	53.3815	105.879	-36.189	83.5302	63.5658	-31.0808	81.8016	
406	3.38333	39.2939	-64.5566	97.2589	21.71	-87.7218	75.1883	17.8938	-103.463	38.2669	25.9116	-113.494	14.5688	24.7464	-37.5213	21.4529	13.1025	-38.4698	-5.98022	0.569128	-38.3094	-27.6177	39.1797	-40.06	8.90474	26.1707	-42.404	-20.2805	11.0103	-42.0999	-50.2106	61.8314	-71.5246	2.13566	48.2771	-100.878	-1.42137	47.9064	-117.24	32.5867	79.2882	-84.3067	11.6725	67.9377	-115.325	18.7943	64.232	-113.159	51.1404	93.6934	-44.1447	50.3065	105.807	-39.0844	79.626	67.6622	-33.5686	76.552	
407	3.39167	44.603	-64.9669	95.5391	22.798	-88.1169	70.2943	22.0643	-104.419	41.3493	32.6356	-113.926	16.3746	28.6035	-40.5272	20.031	17.4083	-41.3402	-7.91968	10.9144	-43.4033	-32.5652	44.6535	-43.171	6.14593	29.8969	-46.4966	-23.186	16.7295	-46.7927	-53.5919	64.1581	-77.0967	-1.39937	49.577	-105.655	-0.728969	51.2182	-122.098	31.6689	85.8509	-91.4155	11.397	68.744	-117.628	20.4689	68.3362	-117.437	55.9042	93.5334	-44.8316	46.277	109.006	-40.9815	78.3549	68.4299	-34.106	80.8027	
408	3.4	41.5606	-64.6212	92.822	26.404	-89.5137	72.4327	25.353	-106.321	37.792	31.0404	-119.194	16.0855	32.9288	-43.5921	12.5259	19.9379	-44.4281	-11.7582	16.4632	-47.7792	-37.9078	49.4065	-47.3201	-0.650558	39.0059	-51.3968	-26.7722	25.8928	-52.3132	-55.4672	68.5125	-79.9184	-0.358266	55.5066	-110.495	-1.02106	53.6125	-125.134	31.6605	86.9336	-93.4428	13.4286	69.7832	-122.614	25.1333	68.5478	-119.999	57.3357	97.312	-47.4066	46.4337	110.307	-43.1639	82.9814	70.5684	-35.4773	74.6859	
409	3.40833	42.2112	-64.2875	92.3528	24.5971	-90.0637	69.8165	21.4968	-110.355	37.4049	34.9348	-122.237	15.1496	38.7907	-47.5411	10.2113	29.265	-49.833	-14.2532	22.4451	-52.188	-39.7998	54.4501	-51.1897	-1.13998	41.1012	-55.2013	-27.5389	33.4502	-59.5134	-59.2578	70.6646	-86.3607	-1.14093	58.3543	-114.351	-1.54914	55.3726	-127.845	36.3555	89.3161	-104.389	11.4926	69.0135	-125.287	26.1121	68.4384	-123.772	58.047	98.8621	-53.8539	45.6615	109.906	-44.3772	81.5067	70.8566	-37.1558	72.5475	
410	3.41667	44.4473	-63.7463	90.7291	27.3926	-89.9796	70.9946	21.8784	-112.397	40.6743	33.6763	-127.007	18.0157	36.9618	-49.0158	8.24167	29.4944	-54.9804	-19.1237	26.4115	-59.3267	-41.2547	58.5311	-57.4761	-3.12232	45.654	-61.3304	-31.394	39.3762	-67.6299	-59.3455	74.0963	-91.1156	-0.414373	54.7154	-120.162	3.83952	51.1788	-127.194	37.5044	91.1372	-105.774	16.6251	70.4343	-129.469	27.4732	64.9321	-122.57	63.1212	102.403	-55.625	49.2462	111.228	-48.4811	81.4111	74.0104	-39.7869	69.5939	
411	3.425	42.9804	-63.5891	87.1791	25.4539	-91.4178	66.5384	21.7097	-117.128	38.062	34.0644	-131.086	23.7351	41.8615	-53.9475	5.64491	33.9476	-59.4378	-17.7392	27.7894	-65.4627	-43.9256	61.2469	-63.6979	-7.72279	49.6467	-71.2467	-35.987	40.7108	-75.8686	-64.3255	73.4154	-98.3692	1.43013	55.2782	-127.564	6.48784	50.4675	-130.321	38.7493	87.6474	-115.213	17.4927	69.9318	-137.235	33.7508	62.6257	-127.388	63.3374	102.419	-61.9302	48.7617	112.804	-54.2323	74.66	76.9028	-41.0873	68.0057	
412	3.43333	45.7385	-62.7549	83.747	23.3365	-91.0531	68.2068	19.4084	-119.664	43.8178	31.6344	-135.889	28.7437	45.5447	-60.5008	3.17869	39.1319	-69.4109	-22.545	34.5666	-76.2348	-46.9357	64.6339	-71.5111	-9.34731	54.0121	-79.2736	-33.4628	43.2542	-89.7956	-65.118	70.8699	-104.075	3.11506	54.3596	-132.192	10.0473	51.4345	-132.394	47.2199	85.1087	-121.071	20.9883	64.5514	-140.379	38.6331	57.956	-129.203	68.5064	103.623	-66.4385	44.1166	113.787	-56.5273	74.3907	81.4665	-41.6803	65.6338	
413	3.44167	45.1237	-61.3188	86.8514	22.7569	-92.4514	70.1149	20.1967	-121.432	49.9936	30.0182	-144.502	32.43	49.2949	-68.5112	1.62639	39.8452	-78.8178	-23.3836	33.2837	-86.6135	-49.519	63.66	-80.8184	-9.18593	55.0553	-93.6734	-33.4646	43.3779	-105.292	-60.9632	67.0321	-114.488	5.3291	48.1461	-137.673	16.717	45.4962	-133.214	50.1308	82.3378	-132.837	26.7464	61.7546	-146.4	44.976	54.7406	-127.374	74.4914	104.018	-77.3223	43.1017	116.73	-63.7469	76.5212	84.3018	-48.5691	63.1598	
